<svg id="圖層_1" data-name="圖層 1" xmlns="http://www.w3.org/2000/svg" viewBox="0 0 792 612"><path d="M249.25,335a2.42,2.42,0,0,0-.39,2.21c.26.52.65.52,2.2-1.3,10.26-11.81,11.43-27,11.95-37,1.69-34.27-1.82-48.16,16.36-48.16,0,0,13.63,0,14.54,14.41.9,18.82-19.61,78.54-28.7,89.83-3.89,4.81-10.12,6.36-14.67,6.36-19.86,0-14.66-24.92-13.63-33.75.52-4.28.13-4.93-.52-5.06s-.9.26-1.68,4.15c-2.08,12.33-2.47,34.66-22.85,34.66-8.44,0-13.63-5.45-18.05-17.65-6-16.49-15.84-79.71-28.43-79.71-7,0-7.53,9.21-.91,18.43,9.09,13,5.2,26.36-8.05,26.49-9.34.13-18.69-6.24-18.69-24.28,0-20.25,11.68-32.46,30.9-32.46,28.43,0,34.92,27.27,37.52,37.78,8.69,36.35,8.43,37.78,4.8,44-1,1.95-1,2.6-.91,3.25s.78.65,2.21-1.3c6.62-10.39,13.5-29.86,7.27-47.52-6-16.48,4.15-22.59,13-22.59,6.23,0,16.88,3.25,22.2,29.34C255.74,300.68,259.24,319.76,249.25,335Z"/><path d="M356.38,338.2c0,4.93-7.14,9.47-13.63,9.47-8.83,0-14-8.95-7.66-20.25,1.3-2.21,1.17-2.6.78-2.86-.78-.25-1.3.13-2.08,1.95-2.46,4.81-7.53,21.16-23.11,21.16-13.89,0-22.59-12.85-22.59-32.84,0-21.68,10.26-35.44,26.1-35.44,10.51,0,14.28,6.1,15.58,12.59.65,2.34,1,2.73,1.69,2.73s.9-.39.77-1.95c-1.81-8.18,3.25-13.37,10.39-13.37,6.62,0,13.76,4.54,13.76,9.34s-6.23,10.26-6.23,24.15C350.15,327.16,356.38,333.52,356.38,338.2ZM318.08,323c5.59,0,9.09-5.2,9.09-11.56s-3.63-11.55-9.35-11.55c-6,0-9.34,5.71-9.34,11.55C308.48,317.81,312.37,323,318.08,323Z"/><path d="M406.88,279.39c19.48,0,11.95,25.7,11.95,32.71v1.95c0,18.95,5.19,15.58,6.36,20.77,1.56,6.1-5.71,12.85-14.8,12.85-7.53,0-14.28-4.67-14.28-15.32,0-6.1,2.21-12.2,2.21-18.3v-1c0-9-1.17-14.15-6.75-14.15-7.66,0-8.7,9.61-8.7,14.15v1c0,18.95,5.19,15.58,6.49,20.77,1.43,6.1-5.71,12.85-14.93,12.85-7.53,0-14.15-4.67-14.15-15.32,0-6.1,2.2-12.2,2.2-18.3v-1a41.77,41.77,0,0,0-1.16-10.13c-1.82-7.91-5.46-10.51-5.46-14.93,0-4.8,4.55-8.56,11.56-8.56,6,0,10.9,2.85,11.81,7.14.78,3.37-.52,9.08-3,13.11-1,1.69-1.3,2.72-.26,2.72.39,0,.78-.25,2.07-2.72C384.3,287.05,396.5,279.39,406.88,279.39Z"/><path d="M457.77,256.77c-17.91,2.72-18.56,11.81-10.9,17.65,11.81,9,4.15,25.71-9.61,25.84-8.83.13-18.17-6.23-18.17-22.85,0-20.64,14.93-33.88,37.64-33.88,15.06,0,34.54,5.71,57.65-4.68,11-4.93,14.8-3.24,16,3.38,1.17,7.66-1.16,21.81-16.74,25-6.62,1.3-20.38,1-26.62-3.11,1.95,10-2.85,39.07-2.85,47.12,0,26.88,5.84,26.1,5.84,31.42s-6.1,10-15.45,10c-10.26,0-16.1-5.46-16.1-16.36,0-9.09,3.9-20.9,3.9-33.76s-3.9-23.36-3.9-33.23c0-5.71,2.08-11.29,9.87-10.9,1.82.12,2.08-.13,2.08-.52s-.26-.65-1.56-1C465.43,255.86,461.41,256.12,457.77,256.77Z"/><path d="M536.35,303.17c.65-3.12-1.81-3.25-2.72-3.25-4.68,0-7.92,5.59-7.92,14.15v1c0,19,5.19,15.58,6.49,20.77,1.43,6.11-5.71,12.86-14.93,12.86-7.53,0-14.15-4.68-14.15-15.32,0-6.1,2.2-12.21,2.2-18.31v-1A42.2,42.2,0,0,0,504.16,304c-1.82-7.92-5.46-10.52-5.46-14.93,0-4.81,4.55-8.57,11.56-8.57,6,0,10.9,2.86,11.81,7.14.78,3.37-.52,9.09-3,13.11-1,1.69-1.3,2.73-.26,2.73.39,0,.78-.26,2.07-2.73,6.24-12.59,15.71-20.25,25.06-20.25,10.77,0,12.85,10.13,12.85,15.19,0,8.18-5.19,14.93-13.11,15.32C539.6,311.35,535.57,307.58,536.35,303.17Z"/><path d="M587,338.74c0,5.45-6.1,10-14.93,10-9.48,0-15.45-5.46-15.45-14.28,0-7.14,4-13.25,4-19.35v-1c0-6.23-4-16.22-4-22.46,0-7.92,6.36-11.16,14.67-11.16s13.76,3.24,13.76,10.9c0,6.5-3.9,16.49-3.9,22.72v1C581.19,333.29,587,333.29,587,338.74Zm-15.84-87a13,13,0,1,1-12.72,13A12.77,12.77,0,0,1,571.2,251.76Z"/><path d="M617.53,366.13c0,6.62-6.23,9.87-14.41,9.87s-14-3.25-14-13.37c0-8.57,4-17.66,4-34.41,0-24.53-7.27-32.45-7.27-37.9s7.27-9.87,13.63-9.87c9,0,14.15,8.83,7.66,20.25-1.17,2.08-1,2.47-.65,2.86.65.26,1.17-.13,2.07-1.95,2.47-4.93,7.53-21.16,23-21.16,14,0,22.72,12.85,22.72,32.72,0,21.68-10.38,35.57-26.22,35.57-10.52,0-14.15-6.24-15.58-12.6-.52-2.33-.91-2.72-1.56-2.72s-.91.39-.91,2.33C610,350.42,617.53,359.12,617.53,366.13ZM624.41,305c-5.71,0-9.34,5.19-9.34,11.68s3.76,11.55,9.47,11.55c6,0,9.22-5.71,9.22-11.55C633.76,310.18,630,305,624.41,305Z"/></svg>